<svg xmlns="http://www.w3.org/2000/svg" viewBox="0 0 64 64" fill="none">
  <rect width="64" height="64" rx="16" fill="#0f172a"/>
  <path d="M14 36.5c0-1.7 1.1-3.2 2.8-3.7l2.5-7.1A4 4 0 0 1 23 23h18a4 4 0 0 1 3.7 2.7l2.5 7.1a4 4 0 0 1 2.8 3.7V43a2 2 0 0 1-2 2h-2a2 2 0 0 1-2-2v-1H20v1a2 2 0 0 1-2 2h-2a2 2 0 0 1-2-2v-6.5Z" fill="#2563eb"/>
  <path d="M22.6 27.4a1 1 0 0 1 .94-.65h16.92a1 1 0 0 1 .94.65L43 32H21l1.6-4.6Z" fill="#93c5fd"/>
  <circle cx="22.5" cy="37.5" r="2.5" fill="#e2e8f0"/>
  <circle cx="41.5" cy="37.5" r="2.5" fill="#e2e8f0"/>
</svg>